<?xml version="1.0" encoding="utf-8"?>
<!-- Generator: Adobe Illustrator 22.0.0, SVG Export Plug-In . SVG Version: 6.00 Build 0)  -->
<svg version="1.1" id="图层_1" xmlns="http://www.w3.org/2000/svg" xmlns:xlink="http://www.w3.org/1999/xlink" x="0px" y="0px"
	 viewBox="0 0 627 162" style="enable-background:new 0 0 627 162;" xml:space="preserve">
<style type="text/css">
	.st0{clip-path:url(#SVGID_2_);}
	.st1{fill:none;stroke:#999999;stroke-linecap:round;stroke-linejoin:round;}
	.st2{fill:none;stroke:#C0C1C1;stroke-miterlimit:10;}
	.st3{fill:none;stroke:#878687;stroke-miterlimit:10;}
	.st4{fill:#F4F1E8;}
	.st5{font-family:'DFPKaiW5';}
	.st6{font-size:50.8171px;}
</style>
<g>
	<defs>
		<rect id="SVGID_1_" width="627" height="493"/>
	</defs>
	<clipPath id="SVGID_2_">
		<use xlink:href="#SVGID_1_"  style="overflow:visible;"/>
	</clipPath>
	<g transform="translate(-357 -760)" class="st0">
		<g>
			<path class="st1" d="M930.3,264.9c-2.9-3.4-8-0.5-8-0.5s-0.9,13.7,3,18.1s10,16.4,9.6,22.7s-1.2,18.9-1.5,24.2s4.9,5.6,4.4,13
				s-3.8,10.3-3.8,10.3s-15.4,9.1-8.1,17.4s9,24,3.6,28.7c-5.3,4.7-18.2,5.3-17.8-1.8s-6.6,7.7-12,4.6c-6.5-3.7-20.9-2.9-11.1,8.3
				s0.2,14.6-5.6,19.7s-14,14.9-14.5,22.3s-1.1,17.9,4.1,18.2s-0.3,14.7,8.1,7.4c5-4.4,7.4,14.7,4,17.7s-2,14.7,1,18s5,8,9.8,3.8
				c1.7-1.5,0.7-2.7,2.2-3.7c2.8-1.8,7.6-3.2,7.8-6.5l-1.9-4.4c4.8-6.1,1.5-5.8,7.8-11.3c5.6-4.9,7.9,1.6,11.2-1.4s4.8,5.5,9.6,5.8
				c0,0,6.2-4.7,6.4-9.6c0.1-1.7-2.4-3.6-3.7-5c-3.5-3.9-16.5,0.6-16.2-3.6s-6.1-19.4-6.6-12s-5.7,7-9.9,6.8s-3.7,0.3-8.6-5.3
				s1.3-25.2,2.7-20.4c1.9,6.4,1.3,6.9,7.4,1.5s5.7-6,9.6-1.5s3.8,3.4,9.7,10.1c3.4-2.9,6.8-8,10.2-11s14.8-13.8,23.2-13.3
				s47.9,12.5,53.1,18.4c4.4,5,1.3,3.8,5.2,0.3s11.8,4.1,19.7,7.2c5.3,0.3-0.1-9.5,0.3-15.8s-8.2-1.3-2-15.7s15.9-25,25-33
				s9.5-8,19-7.3c9.5,0.6,13.2-0.4,13.6-6.7s7.9-9.1,7.3,1.4l3.3-2.9c9.5,0.6,1.1-1.9,6.6-6.8s16.2-8,16.2-8
				c0.5-7.4,11.2-9.8,11.7-17.2s-13,4.4-18.5,9.4s-8.9-10.1-8.9-10.1s7.8-6.9,0.5-7.4s-18.5-4.8-12.5-16.1c3-5.6,6.8-21.4,2.9-25.9
				c-6.4,3.8-9.7,22.9-14.4,25.2l-9.8,4.6c0,0-17.7,4.1-22.6-1.4s-10.2-13.8-18.6-6.5s-8.4,7.4-13.3-4c-2.7-6.3-8.7,5.5-16.3-3.2
				s-9.3-1.8-15.8-9.2s-19.7-17.1-23.3-23.3c-3-5.1-6.5-6.2-16-6.9s-14.4-14.1-14.4-14.1L930.3,264.9z"/>
			<path class="st2" d="M837.6,726.2c0.3-3.3-0.6-6.8-5.1-1.3c-1.8,2.1-2.6,2-2.9,5.6c-0.1,1.7,0.6,1.9,0,4.6
				c-0.5,2.3-3.1,3.2-3.2,6s-2.8,7.2-0.4,7.4s5.2-3.8,6.3-3.8s2.3-0.7,0.6,3c-0.8,1.9-1.4,6.4-3.8,7.8s-1.7,2.9,3.5-0.2
				s5.7-4.1,7-7.5c1.1-2.7,2.4-2.8,3.1-4.5s-0.2-2.5,1.1-5.6s1.3-6.6-1.2-4.4s-3.1,4.3-4.7,2.4S838.3,729.3,837.6,726.2L837.6,726.2
				z"/>
			<path class="st2" d="M0,493"/>
			<path class="st2" d="M0,493"/>
			<path class="st3" d="M483.2,994.4C482.6,994.3,482.9,994.3,483.2,994.4z"/>
		</g>
	</g>
</g>
<rect y="-1" class="st4" width="627" height="294"/>
<text transform="matrix(1 0 0 1 213.002 127.4293)" class="st5 st6">工作经历</text>
</svg>
