<?xml version="1.0" encoding="utf-8"?>
<!-- Generator: Adobe Illustrator 22.0.0, SVG Export Plug-In . SVG Version: 6.00 Build 0)  -->
<svg version="1.1" id="图层_1" xmlns="http://www.w3.org/2000/svg" xmlns:xlink="http://www.w3.org/1999/xlink" x="0px" y="0px"
	 viewBox="0 0 172 153" style="enable-background:new 0 0 172 153;" xml:space="preserve">
<style type="text/css">
	.st0{fill:#FBF1E7;}
	.st1{font-family:'AdobeSongStd-Light-GBpc-EUC-H';}
	.st2{font-size:14.9789px;}
	.st3{font-family:'STZhongsong';}
</style>
<g>
	<path class="st0" d="M107.8,28c-2.6,0.7-4.8-0.4-7-1.5c-1.8-0.9-3.7-1.2-5.6-1.7c-0.7-0.2-0.8,0.1-0.8,0.7c0,1.5,0,2.9,0,4.4
		c0,0.6,0,1,0.9,0.8c0.5-0.1,1.1,0.1,1.7,0.1c4.6,0,9.1,0,13.7,0c0.8,0,1.3,0.2,1.9,0.8c4,3.6,6.8,8,9,12.9c0.3,0.7,0.2,0.9-0.8,0.9
		c-8.2,0-16.4,0-24.6,0c-0.3,0-0.6,0-0.9,0c-0.6-0.1-0.8,0.2-0.8,0.8c0,2.9,0,5.8,0,8.8c0,0.7,0.2,1,1,1c8.9,0,17.8,0,26.6,0
		c0.4,0,0.7,0,1.1,0c0.7-0.1,0.9,0.2,0.9,0.9c0.1,3.9-0.5,7.7-1.5,11.4c0,0.1,0,0.1-0.1,0.2c-0.7,2-0.7,2-2.8,1.9
		c-2.8,0-5.5,0-8.3,0c-0.6,0-1-0.2-1.4-0.8c-1.6-2.7-3.9-4.8-6.4-6.7c-0.4-0.3-0.8-1.9-0.5-2.3c0.3-0.4,0.5-0.1,0.8,0.1
		c1.9,1.2,3.6,2.7,5.1,4.3c0.9,0.9,1.7,1.8,2.3,2.9c0.2,0.4,0.5,0.4,0.9,0.4c2.5,0,4.9,0,7.4,0c0.5,0,0.8-0.2,0.9-0.7
		c0.8-2.9,1.4-5.9,1.4-8.9c0-0.5-0.1-0.7-0.7-0.7c-7.1,0-14.2,0-21.3,0.1c-1.6,0-3.3,0.1-4.9,0c-0.5,0-0.7,0.1-0.7,0.6
		c0,1.1,0,2.2,0,3.4c0,0.5,0.3,0.6,0.7,0.7c1.9,0.7,3.7,1.6,5.5,2.6c2.5,1.5,4.6,3.6,6.3,5.9c1.5,2,2.6,4.2,3.4,6.5
		c0.3,0.8-0.3,1.9-1.1,2.2c-0.4,0.1-0.4-0.2-0.5-0.4c-0.5-1.1-0.8-2.4-1.3-3.5c-2.7-5.5-6.9-9.4-12.8-11.3
		c-3.4-1.1-6.8-1.4-10.3-0.8c-5.2,0.9-9.6,3.3-13.1,7.5c-1.8,2.2-3.2,4.7-4.1,7.4c-0.1,0.3-0.2,0.5-0.3,0.8
		c-0.6-0.3-0.9-0.8-1.3-1.2c-0.4-0.3-0.2-0.7-0.1-1.1c1.6-4.5,4.3-8.2,8.1-11c5.1-3.7,10.8-5.3,17.1-4.7c1.6,0.2,1.6,0.2,1.6-1.5
		c0-2.3,0-2.3-2.3-2.3c-5.7,0-11.4,0-17.2,0c-0.5,0-0.8,0.1-1.2,0.5c-2.2,2.2-4.4,4.4-6.9,6.2c-2.9,2.1-6,3.9-9.2,5.5
		c-0.5,0.2-0.8,0.2-1-0.4C53.9,67.9,53.3,66,53,64c-0.1-0.4-0.4-1.1,0.4-1.2c1.1-0.2,1.5,0,1.7,0.9c0.2,1,0.5,2.1,0.7,3.1
		c0.1,0.6,0.4,0.8,1,0.5c4-2,7.6-4.5,10.8-7.6c0.5-0.4,1.4-0.7,1.2-1.4c-0.2-0.5-1.2-0.2-1.8-0.2c-4.5,0-8.9,0-13.4,0
		c-0.8,0-1-0.2-1-1c0-4.6,1-9,2.8-13.2c0.3-0.6,0.7-0.7,1.3-0.7c6.8,0,13.6,0,20.3,0c0.7,0,1.4-0.1,2.1-0.1c0.4,0,0.5-0.3,0.6-0.6
		c1.1-2.8,2-5.7,2.7-8.7c0.2-0.9-0.1-1-0.9-1c-5.8,0-11.6,0-17.3,0c-0.2,0-0.5,0-0.7,0c-0.1,0-0.3,0-0.4-0.1
		c-0.1-0.2,0.1-0.3,0.2-0.4c2.3-2.2,4.8-4.2,7.6-5.8c2.6-1.4,5.4-2.6,8.3-3.3c0.4-0.1,0.9-0.5,1.2,0.1c0.3,0.7,0,1.8-0.6,1.9
		c-3.4,0.8-6.5,2.3-9.5,4.1c-0.6,0.4-1.6,0.7-1.5,1.3c0.1,0.5,1.2,0.2,1.8,0.2c3.8,0,7.5,0,11.3,0c0.8,0,1.1-0.2,1.1-1
		c0.2-2.2,0.5-4.4,0.4-6.5c0-0.7,0.1-1,1-1.1c6.3-0.6,12.4,0.3,18.3,2.8c1.6,0.7,3.3,1.5,4.8,2.4C107.6,27.6,107.8,27.7,107.8,28z
		 M106.5,43.2C106.5,43.2,106.5,43.2,106.5,43.2c3.7,0,7.4,0,11,0c1,0,1.1-0.2,0.7-1.1c-1.7-3.2-3.9-6.1-6.5-8.7
		c-0.4-0.4-0.8-0.6-1.4-0.6c-4.9,0-9.8,0-14.7,0c-0.9,0-1.1,0.3-1.1,1.1c0,2.8,0,5.5,0,8.3c0,0.8,0.2,1,1,1
		C99.2,43.2,102.8,43.2,106.5,43.2z M62.9,56C62.9,56,62.9,56,62.9,56c2.5,0,5,0,7.5,0c0.4,0,0.8,0,1.2-0.4c2.4-3,4.7-6.1,6.4-9.6
		c0.2-0.5,0.1-0.7-0.4-0.7c-0.9,0-1.8,0-2.7,0c-5.6,0-11.2,0-16.8,0c-0.8,0-1.2,0.2-1.5,1c-1,2.8-1.5,5.7-1.9,8.6
		c-0.1,0.8,0.1,1.1,1,1C58,56,60.5,56,62.9,56z M83.2,56C83.2,56,83.2,56,83.2,56c2.8,0,5.5,0,8.3,0c0.7,0,0.9-0.2,0.9-0.9
		c0-2.9,0-5.8,0-8.8c0-0.7-0.2-0.9-0.9-0.9c-3.4,0-6.7,0-10.1,0c-0.5,0-0.8,0.2-1,0.6c-1.5,3.3-3.6,6.4-5.8,9.2
		c-0.1,0.2-0.4,0.4-0.3,0.6c0.1,0.3,0.5,0.2,0.7,0.2C77.7,56,80.4,56,83.2,56z M92.4,38C92.4,38,92.4,38,92.4,38c0-1.5,0-2.9,0-4.4
		c0-0.5-0.1-0.7-0.6-0.7c-2.2,0-4.3,0-6.5,0c-0.4,0-0.6,0.1-0.7,0.6c-0.2,1.1-0.3,2.2-0.6,3.2c-0.6,1.9-1.3,3.8-2,5.7
		c-0.2,0.6-0.2,0.9,0.6,0.9c2.7,0,5.4,0,8.1,0c0.4,0,0.7-0.1,1.1-0.1c0.5-0.1,0.6-0.3,0.6-0.8C92.3,40.9,92.4,39.4,92.4,38z
		 M88.7,30.8c1,0,2,0,3,0c0.4,0,0.7-0.1,0.7-0.6c0-1.8,0-3.6,0-5.4c0-0.4-0.1-0.6-0.5-0.6c-1.9-0.2-3.8-0.2-5.7-0.1
		c-0.4,0-0.6,0.1-0.7,0.6c-0.1,1.8-0.2,3.6-0.4,5.4c0,0.5,0.1,0.7,0.6,0.6C86.7,30.8,87.7,30.8,88.7,30.8z"/>
	<path class="st0" d="M92.5,81.3c0-3.7,0-7.4,0-11c0-0.8,0.3-1,1-0.7c5.4,2.2,8.8,6.1,9.9,11.9c0.4,2.2,0.4,2.2-1.7,3
		c-0.9,0.4-1.9,0.6-2.8,0.9c-0.7,0.3-0.8-0.1-0.9-0.7c-0.1-1,0.3-1.4,1.2-1.6c2.4-0.6,2.4-0.6,1.7-3c-0.9-3.1-2.8-5.5-5.5-7.4
		c-0.5-0.4-0.8-0.3-0.8,0.4c0,5.7,0,11.3,0,17c0,0.7,0.3,0.8,0.9,0.6c3.8-0.8,7.3-2.3,10.6-4.3c4.6-2.8,8.2-6.5,11-11
		c0.4-0.7,1.6-1,2.3-0.7c0.5,0.2,0.2,0.5,0,0.8c-2,3.5-4.5,6.5-7.5,9.1c-3.8,3.3-8,5.8-12.8,7.3c-1.9,0.6-3.9,1-5.9,1.3
		c-0.7,0.1-0.8-0.2-0.8-0.8C92.5,88.8,92.5,85.1,92.5,81.3C92.5,81.3,92.5,81.3,92.5,81.3z"/>
	<path class="st0" d="M83.3,81.5c0,3.6,0,7.2,0,10.9c0,0.9-0.3,1-1.1,0.8c-9.5-1.7-17.1-6.6-22.9-14.2c-0.8-1-1.5-2.1-2.1-3.3
		c-0.3-0.6-0.1-0.8,0.5-0.8c0.8-0.1,1.5,0,2,0.8c2.3,3.8,5.2,6.9,8.8,9.5c3.5,2.5,7.3,4.4,11.6,5.5c1.2,0.3,1.2,0.3,1.2-1
		c0-5.3,0-10.6,0-15.9c0-0.3,0.2-0.7-0.2-0.8c-0.3-0.1-0.6,0.2-0.8,0.3c-2.7,2.1-4.5,4.8-5.3,8.2c-0.1,0.5,0,0.8,0.5,1
		c0.5,0.2,1.1,0.4,1.6,0.6c0.5,0.1,0.7,0.4,0.7,0.9c0.1,1.5,0,1.5-1.4,1.1c-0.9-0.3-1.9-0.7-2.8-1.1c-0.6-0.3-1.1-0.6-0.9-1.4
		c0.5-3,1.5-5.7,3.4-8.1c1.7-2.1,3.9-3.6,6.3-4.6c0.8-0.3,0.9,0,0.9,0.6C83.3,74.1,83.3,77.8,83.3,81.5
		C83.3,81.5,83.3,81.5,83.3,81.5z"/>
</g>
<text transform="matrix(1 0 0 1 52.8008 112.9941)" class="st0 st1 st2">FEI SI XUN</text>
<text transform="matrix(1 0 0 1 35.9263 135.4766)" class="st0 st3 st2">费思勋个人网站</text>
</svg>
